<?xml version="1.0" encoding="UTF-8" standalone="no"?> <svg width="24" height="24" viewBox="0 0 24 24" fill="none" xmlns="http://www.w3.org/2000/svg">
<g clip-path="url(#clip0_36_7169)">
<path d="M7.3 13.8C6.9 14.2 6.9 14.8 7.3 15.2L12 19.9L16.7 15.2C17.1 14.8 17.1 14.2 16.7 13.8C16.3 13.4 15.7 13.4 15.3 13.8L13 16.1V1.5C13 0.9 12.6 0.5 12 0.5C11.4 0.5 11 0.9 11 1.5V16.1L8.7 13.8C8.3 13.4 7.7 13.4 7.3 13.8Z" fill="black"/>
<path d="M20.8 9.5H17C16.4 9.5 16 9.9 16 10.5C16 11.1 16.4 11.5 17 11.5H19.2L20.9 21.5H3.2L4.9 11.5H7C7.6 11.5 8 11.1 8 10.5C8 9.9 7.6 9.5 7 9.5H3.2L0.900002 23.5H23.3L20.8 9.5Z" fill="black"/>
</g>
<defs>
<clipPath id="clip0_36_7169">
<rect width="24" height="24" fill="white"/>
</clipPath>
</defs>
</svg>
