<?xml version="1.0" encoding="UTF-8" standalone="no"?> <svg width="24" height="24" viewBox="0 0 24 24" fill="none" xmlns="http://www.w3.org/2000/svg">
<g clip-path="url(#clip0_36_7449)">
<path d="M8.7 6.90005L11 4.60005V18.2001C11 18.8001 11.4 19.2001 12 19.2001C12.6 19.2001 13 18.8001 13 18.2001V4.60005L15.3 6.90005C15.5 7.10005 15.8 7.20005 16 7.20005C16.2 7.20005 16.5 7.10005 16.7 6.90005C17.1 6.50005 17.1 5.90005 16.7 5.50005L12 0.800049L7.3 5.50005C6.9 5.90005 6.9 6.50005 7.3 6.90005C7.7 7.30005 8.3 7.30005 8.7 6.90005Z" fill="black"/>
<path d="M19.8 10.2H17C16.4 10.2 16 10.6 16 11.2C16 11.8 16.4 12.2 17 12.2H18.2L20.7 21.2001H3.3L5.8 12.2H7C7.6 12.2 8 11.8 8 11.2C8 10.6 7.6 10.2 7 10.2H4.2L0.7 23.2001H23.3L19.8 10.2Z" fill="black"/>
</g>
<defs>
<clipPath id="clip0_36_7449">
<rect width="24" height="24" fill="white"/>
</clipPath>
</defs>
</svg>
